<?xml version="1.0" standalone="no"?>
<!DOCTYPE svg PUBLIC "-//W3C//DTD SVG 20010904//EN"
 "http://www.w3.org/TR/2001/REC-SVG-20010904/DTD/svg10.dtd">
<svg version="1.0" xmlns="http://www.w3.org/2000/svg"
 width="768.000000pt" height="768.000000pt" viewBox="0 0 768.000000 768.000000"
 preserveAspectRatio="xMidYMid meet">
<metadata>
Created by potrace 1.11, written by Peter Selinger 2001-2013
</metadata>
<g transform="translate(0.000000,768.000000) scale(0.100000,-0.100000)"
fill="#000000" stroke="none">
<path d="M6369 7547 c-42 -39 -132 -124 -199 -187 -68 -63 -144 -135 -170
-160 -157 -150 -351 -334 -390 -370 -76 -72 -311 -293 -355 -335 -23 -22 -106
-101 -185 -175 -79 -74 -169 -160 -201 -190 -31 -30 -115 -109 -185 -175 -70
-66 -146 -138 -169 -160 -102 -96 -333 -316 -365 -345 -19 -18 -97 -91 -173
-164 -76 -72 -160 -151 -186 -176 -27 -25 -115 -109 -197 -186 -82 -78 -165
-156 -184 -174 -19 -18 -100 -94 -180 -170 -80 -76 -163 -154 -185 -175 -22
-20 -105 -99 -185 -175 -80 -75 -163 -154 -185 -175 -35 -32 -243 -229 -370
-350 -23 -22 -104 -98 -180 -170 -76 -71 -157 -148 -180 -170 -23 -22 -106
-101 -185 -175 -413 -389 -433 -410 -473 -474 -76 -123 -96 -187 -101 -327 -4
-126 31 -251 103 -364 14 -22 28 -42 31 -45 3 -3 35 -41 70 -85 115 -142 181
-214 341 -375 121 -121 329 -309 393 -355 16 -11 36 -27 45 -35 9 -9 43 -36
76 -60 33 -25 65 -49 72 -55 29 -24 46 -35 184 -127 80 -53 158 -102 172 -109
15 -7 27 -16 27 -21 0 -4 5 -8 10 -8 6 0 27 -11 48 -23 81 -52 310 -170 476
-247 144 -66 538 -215 626 -235 8 -2 49 -14 90 -25 41 -12 82 -23 90 -25 8 -2
44 -11 80 -20 36 -9 76 -19 90 -21 14 -3 57 -11 95 -20 39 -9 79 -17 90 -19
84 -15 146 -25 180 -30 22 -3 51 -8 65 -10 14 -2 48 -6 75 -9 28 -3 68 -7 90
-10 46 -6 175 -17 255 -22 79 -5 528 -5 570 0 19 2 74 7 121 11 47 3 101 8
120 10 19 3 57 7 84 11 144 18 298 107 394 228 60 76 93 140 120 236 20 73 21
83 15 890 -2 448 -5 820 -5 825 -1 6 -1 46 0 90 0 44 -1 348 -3 675 -8 1157
-18 2592 -21 3110 -7 1073 -9 1500 -10 1500 0 0 -34 -33 -76 -73z m-319 -1064
c1 -115 3 -311 4 -438 1 -126 0 -235 -1 -241 -3 -7 -23 -4 -61 9 -77 27 -260
29 -347 3 -135 -40 -238 -109 -343 -231 -25 -29 -91 -160 -102 -205 -20 -77
-21 -83 -25 -162 -3 -81 7 -156 31 -226 18 -54 62 -141 80 -160 8 -7 14 -17
14 -20 0 -8 64 -76 106 -112 62 -54 178 -115 237 -124 19 -3 45 -10 58 -15 42
-16 228 -5 297 17 42 13 62 16 63 8 0 -6 2 -185 3 -397 l3 -387 -45 24 c-48
26 -217 83 -267 90 -16 2 -50 8 -75 11 -25 4 -94 7 -155 7 -161 -1 -241 -16
-387 -70 -37 -14 -70 -25 -74 -24 -4 1 -10 -2 -13 -7 -3 -5 -31 -23 -61 -39
-243 -128 -452 -394 -529 -674 -29 -108 -32 -123 -37 -250 -10 -206 27 -379
119 -558 57 -112 108 -182 200 -274 76 -75 194 -168 215 -168 6 0 12 -4 14 -9
4 -10 135 -72 198 -93 108 -36 110 -37 256 -57 178 -25 431 21 603 109 24 12
45 19 48 16 3 -3 5 -54 4 -113 -1 -59 -1 -121 -1 -138 5 -119 5 -157 0 -165
-17 -26 -578 -44 -860 -27 -58 3 -105 6 -105 7 0 1 -18 3 -40 5 -64 6 -138 15
-165 19 -14 2 -47 8 -75 12 -27 4 -54 8 -60 10 -5 1 -26 4 -45 7 -65 11 -175
36 -275 62 -55 15 -107 28 -115 30 -8 2 -46 13 -85 26 -38 13 -72 24 -75 24
-21 4 -289 104 -328 124 -9 5 -62 30 -117 56 l-100 47 72 74 c40 40 73 78 73
83 0 6 10 26 23 44 28 41 80 194 72 208 -4 5 -2 9 3 9 9 0 8 188 -2 233 -39
175 -168 346 -323 430 -125 67 -264 92 -407 73 -58 -8 -182 -52 -218 -77 -14
-11 -31 -19 -37 -19 -6 0 -48 -37 -94 -83 -78 -78 -157 -200 -157 -242 0 -8
-4 -15 -9 -15 -7 0 -96 90 -212 216 -62 68 -229 270 -229 278 0 9 69 75 469
451 46 44 103 98 126 120 186 177 206 194 222 188 9 -4 44 -23 78 -43 103 -62
247 -118 345 -135 114 -19 260 -23 360 -10 120 15 325 83 398 132 15 9 29 18
32 18 9 1 105 69 108 77 2 4 8 8 13 8 10 0 126 115 169 166 56 68 140 203 140
227 0 6 6 18 14 26 8 9 17 27 19 41 3 14 15 50 27 80 12 30 21 56 20 58 -1 1
4 33 11 70 18 87 18 328 0 412 -20 99 -69 236 -113 318 l-39 74 38 35 c21 20
100 95 177 167 76 72 155 147 176 166 20 19 104 98 185 175 81 77 186 176 233
220 46 44 106 100 132 125 26 25 102 97 169 160 68 63 173 163 234 222 62 59
113 108 114 108 1 0 2 -93 3 -207z m-3960 -3963 c74 -86 331 -342 410 -410 35
-30 71 -62 80 -70 102 -97 558 -419 583 -412 4 1 7 -2 7 -6 0 -5 24 -21 53
-36 28 -15 68 -37 87 -48 43 -25 248 -128 310 -156 25 -11 68 -29 95 -42 68
-30 260 -101 375 -138 135 -44 307 -90 460 -122 90 -19 116 -24 185 -35 17 -2
41 -6 55 -9 37 -6 119 -18 165 -22 22 -3 60 -7 85 -9 149 -15 243 -19 485 -20
149 0 320 4 380 8 61 5 126 9 145 10 l35 2 1 -175 c1 -145 -2 -183 -16 -222
-28 -75 -93 -129 -170 -142 -145 -24 -273 -30 -575 -30 -248 0 -330 4 -465 19
-19 2 -61 7 -93 10 -32 4 -66 8 -75 9 -9 2 -37 7 -62 11 -72 11 -93 14 -120
20 -14 3 -43 8 -65 11 -22 3 -65 12 -95 19 -30 8 -66 16 -80 19 -75 14 -383
101 -440 123 -8 4 -17 7 -20 7 -3 1 -18 6 -35 13 -16 6 -57 21 -90 33 -67 25
-59 21 -210 86 -107 45 -335 154 -345 164 -3 3 -30 18 -60 34 -30 16 -97 54
-149 85 -51 31 -101 61 -110 66 -23 13 -192 127 -211 142 -8 7 -44 34 -80 60
-36 26 -72 53 -80 60 -32 25 -146 118 -156 128 -6 5 -44 39 -85 75 -227 201
-557 565 -596 659 -21 50 -18 132 6 180 22 43 50 72 195 208 l88 82 72 -88
c39 -48 96 -116 126 -151z"/>
</g>
</svg>
