<svg width="18" height="18" viewBox="0 0 18 18" fill="none" xmlns="http://www.w3.org/2000/svg">
<path d="M16.0406 2.21994L13.8205 3.96966e-08L13.009 0.811546C12.4227 0.543198 11.7659 0.435761 11.1199 0.507234C10.3169 0.596144 9.55956 0.960257 8.98725 1.53246L8.30901 2.21066L12.4748 6.37618L6.26521 12.5854L2.09946 8.41991L0.587257 9.93202C-0.195723 10.7149 -0.195758 11.9888 0.587186 12.7717L3.26806 15.4524C3.26809 15.4524 3.26809 15.4524 3.26813 15.4525C3.64738 15.8317 4.15163 16.0405 4.688 16.0405C5.22438 16.0405 5.72866 15.8316 6.10791 15.4524L14.508 7.05283C15.0803 6.48056 15.4444 5.72326 15.5333 4.92039C15.6049 4.27443 15.4974 3.61775 15.229 3.03141L16.0406 2.21994Z" transform="translate(0 1.95947)" fill="#152DFF"/>
<path d="M1.69652 0H0V3.13976H1.69652V0Z" transform="translate(14.5791 1.19971) rotate(-45)" fill="#FF1515"/>
<path d="M4.68979 -2.66075e-07L4.29181e-08 4.68952L3.40587 8.09514L8.09567 3.40565L4.68979 -2.66075e-07ZM3.25779 6.55038L1.54479 4.83749L2.30471 4.07763L4.0177 5.79051L3.25779 6.55038ZM4.52434 5.28391L2.81134 3.57103L3.57126 2.81116L5.28425 4.52404L4.52434 5.28391ZM4.07789 2.30459L4.83781 1.54473L6.5508 3.25761L5.79089 4.01748L4.07789 2.30459Z" transform="translate(2.85938 4.92969)" fill="#FF1515"/>
</svg>
