<svg width="24" height="24" viewBox="0 0 24 24" fill="none" xmlns="http://www.w3.org/2000/svg">
<path d="M6.84003 15.8022H21.0701C22.6837 15.8022 24 14.5789 24 13.0794V7.51559C24 7.51066 24 7.50079 24 7.49586C24 7.48106 24 7.4712 24 7.4564C24 7.44653 24 7.43667 23.9947 7.4268C23.9947 7.41694 23.9894 7.40214 23.9894 7.39228C23.9894 7.38241 23.9841 7.37255 23.9841 7.36268C23.9788 7.35282 23.9788 7.34295 23.9735 7.32815C23.9682 7.31829 23.9682 7.30842 23.9628 7.29856C23.9575 7.28869 23.9575 7.27883 23.9522 7.26896C23.9469 7.2591 23.9416 7.24923 23.9363 7.23444C23.931 7.22457 23.9257 7.21471 23.9204 7.20977C23.9151 7.19991 23.9098 7.19004 23.9045 7.18018C23.8992 7.17031 23.8938 7.16538 23.8885 7.15552C23.8832 7.14565 23.8726 7.13579 23.8673 7.12592C23.862 7.11606 23.8567 7.11112 23.8461 7.10126C23.8408 7.09139 23.8302 7.08646 23.8248 7.07659C23.8195 7.06673 23.8089 7.0618 23.8036 7.05193C23.7983 7.04207 23.7877 7.03714 23.7824 7.0322C23.7718 7.02234 23.7665 7.01741 23.7558 7.00754C23.7452 7.00261 23.7399 6.99274 23.7293 6.98781C23.7187 6.98288 23.7081 6.97301 23.6975 6.96808C23.6868 6.96315 23.6815 6.95821 23.6709 6.95328C23.6603 6.94835 23.6497 6.94342 23.6391 6.93355C23.6285 6.92862 23.6178 6.92369 23.6072 6.91876C23.5966 6.91382 23.586 6.90889 23.5754 6.90396C23.5648 6.89902 23.5541 6.89409 23.5435 6.88916C23.5329 6.88423 23.5223 6.88423 23.5117 6.87929C23.5011 6.87436 23.4851 6.86943 23.4745 6.86943C23.4639 6.86943 23.4533 6.8645 23.448 6.8645C23.4321 6.85957 23.4215 6.85957 23.4055 6.85957C23.4002 6.85957 23.3949 6.85463 23.3843 6.85463L5.34856 4.54129V2.20329C5.34856 2.17862 5.34856 2.15396 5.34325 2.13423C5.34325 2.1293 5.34325 2.12437 5.33794 2.1145C5.33794 2.0997 5.33263 2.08491 5.33263 2.07011C5.32733 2.05531 5.32733 2.04545 5.32202 2.03065C5.32202 2.02078 5.31671 2.01585 5.31671 2.00599C5.3114 1.99119 5.30609 1.97639 5.30079 1.96159C5.30079 1.95666 5.29548 1.9468 5.29548 1.94186C5.29017 1.92707 5.28486 1.9172 5.27425 1.9024C5.26894 1.89747 5.26894 1.88761 5.26363 1.88267C5.25832 1.87281 5.25302 1.86294 5.2424 1.85308C5.23709 1.84321 5.23179 1.83828 5.22648 1.82842C5.22117 1.81855 5.21586 1.81362 5.21055 1.80375C5.20525 1.79389 5.19463 1.78402 5.18932 1.77416C5.18402 1.76923 5.17871 1.76429 5.1734 1.75936C5.16278 1.7495 5.15217 1.73963 5.14155 1.72977C5.13625 1.72483 5.13094 1.7199 5.12563 1.71497C5.11502 1.7051 5.1044 1.69524 5.08848 1.68537C5.08317 1.68044 5.07255 1.67551 5.06725 1.67058C5.05663 1.66071 5.04601 1.65578 5.0354 1.64591C5.01948 1.63605 5.00355 1.62618 4.99294 1.62125C4.98763 1.61632 4.98232 1.61632 4.97701 1.61139C4.95578 1.60152 4.92924 1.59166 4.90801 1.58179L0.996199 0.0527161C0.629964 -0.0903264 0.210651 0.0675136 0.0567266 0.407856C-0.0971983 0.748199 0.0726499 1.13787 0.438885 1.28091L3.91016 2.64228V5.66097V6.13942V9.8092V13.0893V17.2326C3.91016 18.6137 5.02478 19.7581 6.46318 19.9307C6.2031 20.3352 6.04918 20.8087 6.04918 21.3118C6.04918 22.7965 7.34958 24 8.94191 24C10.5342 24 11.8346 22.7915 11.8346 21.3118C11.8346 20.8185 11.6913 20.35 11.4365 19.9554H17.8802C17.6254 20.3549 17.4821 20.8185 17.4821 21.3118C17.4821 22.7965 18.7825 24 20.3748 24C21.9671 24 23.2675 22.7915 23.2675 21.3118C23.2675 19.832 21.9671 18.6236 20.3748 18.6236H6.84003C6.01202 18.6236 5.34325 17.9971 5.34325 17.2326V15.4273C5.77848 15.6641 6.29334 15.8022 6.84003 15.8022ZM10.4068 21.3069C10.4068 22.0566 9.74868 22.6633 8.94721 22.6633C8.14574 22.6633 7.48758 22.0517 7.48758 21.3069C7.48758 20.562 8.14574 19.9504 8.94721 19.9504C9.74868 19.9504 10.4068 20.5571 10.4068 21.3069ZM21.8397 21.3069C21.8397 22.0566 21.1816 22.6633 20.3801 22.6633C19.5786 22.6633 18.9205 22.0517 18.9205 21.3069C18.9205 20.562 19.5786 19.9504 20.3801 19.9504C21.1816 19.9504 21.8397 20.5571 21.8397 21.3069ZM21.0701 14.4704H6.84003C6.01202 14.4704 5.34325 13.844 5.34325 13.0794V9.79934V6.12955V5.88293L22.5669 8.08776V13.0745C22.5669 13.8489 21.8928 14.4704 21.0701 14.4704Z" fill="#FF1515"/>
</svg>
