<svg width="34" height="48" viewBox="0 0 34 48" fill="none" xmlns="http://www.w3.org/2000/svg">
<circle cx="5.5" cy="5.5" r="5.5" transform="translate(22 25)" fill="#FF1515"/>
<circle cx="2.5" cy="2.5" r="2.5" transform="translate(11 31)" fill="#FF1515"/>
<circle cx="2.5" cy="2.5" r="2.5" transform="translate(27 13)" fill="#152DFF"/>
<path d="M8.50004 3.00009C8.50004 6.03765 6.03761 8.50009 3.00004 8.50009C-0.0375223 8.50009 -3.80442e-08 9.53757 -3.80442e-08 6.5C3.00004 3.5 4 0.5 7.00004 2.17745e-05C10.0376 2.17745e-05 8.50004 -0.0374792 8.50004 3.00009Z" transform="translate(12.5 15.5)" fill="#152DFF"/>
<path d="M42.7358 21.877C41.1642 16.5845 38.2262 11.7695 34.2397 7.95253C30.3406 4.21907 25.5285 1.51542 20.3237 0.13353C18.3742 -0.384186 16.3554 0.643531 15.6278 2.52368L0 42.9033L40.4246 26.6768C42.3279 25.9127 43.3215 23.8493 42.7358 21.877ZM14.2158 13.142C14.8553 12.8029 15.5687 12.6246 16.3012 12.6246C18.7611 12.6246 20.7625 14.6277 20.7625 17.0898C20.7625 19.5519 18.7612 21.5549 16.3012 21.5549C14.4075 21.5549 12.7325 20.3588 12.1023 18.6031L14.2158 13.142ZM9.22219 28.7366C10.0539 28.7366 10.7306 29.4138 10.7306 30.2463C10.7306 31.0787 10.0539 31.756 9.22219 31.756C8.39044 31.756 7.71379 31.0787 7.71379 30.2463C7.71379 29.4139 8.39044 28.7366 9.22219 28.7366ZM18.5009 32.7643C18.3564 30.8651 19.4484 29.003 21.3029 28.267C23.1408 27.5374 25.2011 28.1328 26.4006 29.5934L18.5009 32.7643ZM28.8072 28.6273C28.0556 27.4586 26.973 26.5406 25.6679 25.9874C23.9695 25.2675 22.0902 25.246 20.3756 25.9264C17.2252 27.1768 15.4825 30.5054 16.0969 33.7292L4.4368 38.4096L6.46306 33.174C7.18403 33.8551 8.15489 34.2739 9.22211 34.2739C11.4409 34.2739 13.2461 32.4671 13.2461 30.2464C13.2461 28.0256 11.4409 26.2189 9.22211 26.2189C9.19932 26.2189 9.17686 26.2202 9.15407 26.2206L10.9527 21.5732C12.2483 23.1183 14.1872 24.0726 16.3011 24.0726C20.1481 24.0726 23.278 20.9401 23.278 17.0897C23.278 13.2392 20.1483 10.1068 16.3011 10.1068C15.9866 10.1068 15.6744 10.1286 15.3658 10.1701L16.3397 7.65388C20.9834 8.89252 24.9754 11.0765 28.2176 14.1562C28.7237 14.6369 29.2065 15.1364 29.6676 15.6531C27.9598 16.1188 26.7002 17.6839 26.7002 19.5388C26.7002 21.7595 28.5053 23.5663 30.7241 23.5663C31.9795 23.5663 33.1021 22.9876 33.8407 22.0831C34.4092 23.3362 34.8892 24.6525 35.2801 26.029L28.8072 28.6273ZM30.7243 18.029C31.556 18.029 32.2327 18.7063 32.2327 19.5387C32.2327 20.3712 31.556 21.0484 30.7243 21.0484C29.8925 21.0484 29.216 20.3711 29.216 19.5387C29.216 18.7063 29.8925 18.029 30.7243 18.029ZM39.4881 24.34L37.626 25.0874C34.7223 15.2084 27.4015 8.09552 17.2532 5.294L17.9734 3.43323C18.1912 2.87039 18.7285 2.51865 19.3081 2.51865C19.4306 2.51865 19.5551 2.53441 19.6787 2.56721C24.474 3.84024 28.9078 6.33153 32.5007 9.77187C36.1718 13.2869 38.8772 17.7207 40.3246 22.5943C40.5378 23.3124 40.1782 24.0629 39.4881 24.34Z" transform="translate(49.0264 40.2847) rotate(158.474)" fill="black"/>
</svg>
