<svg width="24" height="24" viewBox="0 0 24 24" fill="none" xmlns="http://www.w3.org/2000/svg">
<path d="M20.7107 12.1256H19.4867C19.4867 8.13102 16.2378 4.88287 12.2454 4.88287L12.2447 3.66032C16.9137 3.65812 20.7107 7.45656 20.7107 12.1256ZM12.2447 5.77187L12.2439 6.99443C15.0748 6.99443 17.3744 9.29627 17.3729 12.1249L18.597 12.1242C18.597 8.62181 15.7492 5.77187 12.2447 5.77187ZM12 0C5.38248 0 0 5.38248 0 12.0007C0 18.6175 5.38248 24 12 24C12.4092 24 12.7399 23.6694 12.7399 23.2609C12.7399 22.8502 12.4092 22.5188 12 22.5188C6.19874 22.5188 1.48044 17.7991 1.48044 12.0007C1.48044 6.19947 6.19874 1.48044 12 1.48044C17.8013 1.48044 22.5188 6.20021 22.5188 12.0007C22.5188 14.4245 21.2287 16.8263 19.3824 17.8446C18.7116 18.2134 17.9842 18.3964 17.2084 18.4037C17.6742 18.1267 18.0775 17.752 18.3773 17.2804C18.4361 17.1915 18.5139 17.1128 18.5521 17.0166C18.7931 16.4369 18.8144 15.7793 18.9599 15.1666C19.1384 14.3849 15.5376 12.8574 15.2246 13.8338C15.1115 14.1953 14.9381 15.3385 14.7111 15.6397C14.509 15.9087 14.0109 15.7808 13.6994 15.5163C12.8787 14.8169 11.9625 13.789 11.1588 12.9764L11.1602 12.9757C11.1397 12.9544 11.1147 12.9309 11.0926 12.9081C11.0699 12.8868 11.0471 12.8625 11.0243 12.8405V12.842C10.2117 12.0367 9.18313 11.1228 8.48442 10.3006C8.21992 9.9891 8.09208 9.49097 8.36099 9.28892C8.66222 9.06043 9.80542 8.88998 10.1669 8.77536C11.1411 8.46385 9.61587 4.86083 8.83267 5.0401C8.22139 5.18337 7.56383 5.20688 6.98414 5.4464C6.88569 5.48828 6.80928 5.56395 6.72038 5.62273C4.66393 6.9261 4.3987 10.0912 6.40593 12.4496C7.17076 13.3519 7.96865 14.2247 8.79006 15.077L8.78565 15.0799C8.80842 15.1027 8.83194 15.124 8.85545 15.146C8.87749 15.1688 8.89879 15.1916 8.9201 15.2158L8.92451 15.2114C9.77677 16.0328 10.787 17.2429 12.4283 18.3376C15.8837 20.6453 18.5352 20.001 20.0972 19.1443C22.7936 17.6595 24 14.4877 24 12.0037C24 5.38248 18.6168 0 12 0Z" fill="#152DFF"/>
</svg>
