<svg width="20" height="18" viewBox="0 0 20 18" fill="none" xmlns="http://www.w3.org/2000/svg">
<path d="M0.652187 1.28708C1.01238 1.28708 1.30438 0.998955 1.30438 0.643539C1.30438 0.288122 1.01238 0 0.652187 0C0.291994 0 0 0.288122 0 0.643539C0 0.998955 0.291994 1.28708 0.652187 1.28708Z" transform="translate(13.1523 7.56055)" fill="#FF1515"/>
<path d="M0.652188 1.28708C1.01238 1.28708 1.30438 0.998955 1.30438 0.643539C1.30438 0.288122 1.01238 0 0.652188 0C0.291994 0 0 0.288122 0 0.643539C0 0.998955 0.291994 1.28708 0.652188 1.28708Z" transform="translate(5.2168 7.56055)" fill="#FF1515"/>
<path d="M1.95652 -6.11668e-08C0.877695 -6.11668e-08 -1.23978e-07 0.866056 -1.23978e-07 1.93058C-1.23978e-07 2.9951 0.877695 3.86116 1.95652 3.86116C3.03535 3.86116 3.91305 2.9951 3.91305 1.93058C3.91305 0.866056 3.03535 -6.11668e-08 1.95652 -6.11668e-08ZM1.95652 2.57408C1.59691 2.57408 1.30434 2.28538 1.30434 1.93054C1.30434 1.5757 1.59691 1.287 1.95652 1.287C2.31613 1.287 2.60871 1.5757 2.60871 1.93054C2.60871 2.28542 2.31613 2.57408 1.95652 2.57408Z" transform="translate(8.26074 4.98682)" fill="#FF1515"/>
<path d="M10.9881 0.0310471C10.3359 -0.0906378 9.64887 0.150728 9.1923 0.661057L0.516133 9.97387C0.422266 10.0746 0 10.6066 0 10.8216C0 10.8793 0 11.1846 0 12.3071C0 13.2385 0.768008 13.9963 1.71195 13.9963H3.91305V15.9269C3.91305 16.9917 4.78606 17.8571 5.87203 17.8571C6.99914 17.8571 7.82605 16.9396 7.82605 15.8639V15.1706C8.03598 15.2461 8.25344 15.2834 8.48012 15.2834C9.33551 15.2834 10.0522 14.746 10.3216 13.9963H17.5543C18.9029 13.9963 20 12.9137 20 11.5831V10.7787C20 5.5256 16.21 1.00557 10.9881 0.0310471ZM10.1575 1.52688C10.1611 1.52303 10.1646 1.51913 10.1681 1.51516C10.3194 1.34464 10.5462 1.25861 10.7457 1.29577C15.1377 2.11538 18.3815 5.77853 18.6741 10.1352H17.3665C17.0427 5.9548 13.5913 2.62424 9.32273 2.42281L10.1575 1.52688ZM3.91305 12.7093H1.71195C1.48723 12.7093 1.30434 12.5289 1.30434 12.3071V11.4651H3.26086C3.62047 11.4651 3.91305 11.7586 3.91305 12.1194V12.7093ZM9.13043 12.0658V13.3528C9.13043 13.7193 8.82094 14.015 8.44223 13.9954C8.1025 13.9778 7.82609 13.6569 7.82609 13.28V10.8324V10.7788C7.82609 10.4234 7.5341 10.1352 7.17391 10.1352C6.81375 10.1352 6.52172 10.4233 6.52172 10.7788V10.8324V13.28V15.8639C6.52172 16.2069 6.29605 16.5057 5.99684 16.559C5.5698 16.6351 5.21734 16.3158 5.21734 15.9269V12.1194C5.21734 11.049 4.33965 10.1781 3.26082 10.1781H2.09762L8.08879 3.74735C8.36125 3.71652 8.63777 3.69994 8.91305 3.69994C12.6489 3.69994 15.7264 6.53242 16.057 10.1352H11.087C10.0081 10.1352 9.13043 11.0012 9.13043 12.0658ZM18.6957 11.5831C18.6957 12.2041 18.1837 12.7093 17.5544 12.7093H10.4348V12.0657C10.4348 11.7109 10.7273 11.4222 11.087 11.4222H18.6957V11.5831Z" fill="#152DFF"/>
</svg>
